PathFileType	4	(X/Y/Z)	C:/Users/beibeiliu/ov580/test_trc/User2\sequence.14_training_dense_right.trc
DataRate	CameraRate	NumFrames	NumMarkers	Units	OrigDataRate	OrigDataStartFrame	OrigNumFrames
120	120	16	19	mm	120	106	420
Frame#	Time	ThumbCMC			ThumbMCP			ThumbIP			ThumbTip			IndexMCP			IndexPIP			IndexTip			MiddleMCP			MiddlePIP			MiddleTip			RingMCP			RingPIP			RingTip			PinkyMCP			PinkyPIP			PinkyTip			BackHand1			BackHand2			BackHand3	
		X0	Y0	Z0	X1	Y1	Z1	X2	Y2	Z2	X3	Y3	Z3	X4	Y4	Z4	X5	Y5	Z5	X6	Y6	Z6	X7	Y7	Z7	X8	Y8	Z8	X9	Y9	Z9	X10	Y10	Z10	X11	Y11	Z11	X12	Y12	Z12	X13	Y13	Z13	X14	Y14	Z14	X15	Y15	Z15	X16	Y16	Z16	X17	Y17	Z17	X18	Y18	Z18	
105	0.875	29.7829	-12.1243	92.0621	16.4431	-44.2267	70.4858	21.5089	-65.3363	38.6649	42.3842	-68.388	18.7898	11.7565	5.68359	13.7703	-1.12077	2.74568	-9.20875	-9.63254	-0.50647	-34.1082	37.7263	-13.327	-2.37275	35.66	-46.8233	-9.44416	40.8803	-59.625	30.1691	59.7143	-20.1334	-4.7136	53.5059	-50.6473	-8.08178	52.9238	-64.7954	22.5629	91.8585	-14.0807	9.33978	93.1541	-23.4836	-18.1966	95.9451	-28.4385	-40.0206	78.0337	13.1204	48.893	87.1883	23.4899	80.7063	47.8318	20.2783	72.4048	
106	0.883333	26.1073	-15.6519	96.71	13.0324	-45.3418	73.4605	16.7826	-63.5839	39.3232	34.5632	-68.0318	20.53	8.27157	6.37147	17.7889	-5.28829	5.94009	-2.86551	-19.4484	5.40422	-29.6132	32.221	-12.1982	-1.5972	28.3867	-47.4207	-7.64964	36.4333	-58.3854	33.0321	52.1302	-17.0489	-4.01726	46.8263	-46.3743	-10.2462	45.9277	-62.6082	20.8533	86.453	-12.7463	9.12894	87.4513	-19.9584	-21.0602	88.5304	-22.7257	-41.669	77.872	13.7191	47.3364	90.4517	21.0393	79.519	46.8885	19.5971	73.6895	
107	0.891667	27.2806	-15.4364	98.6609	15.306	-41.8294	73.2413	13.907	-59.5645	39.5879	28.7297	-64.6798	17.0766	3.36421	11.6732	23.8648	-15.5958	12.4926	1.59989	-28.5984	11.3069	-25.863	24.3139	-7.37964	-0.264071	19.5283	-41.5796	-6.24002	33.4521	-56.5347	27.6642	47.0522	-13.476	-2.03887	42.9978	-46.0933	-10.115	41.5516	-59.604	21.0768	81.2882	-10.1687	4.99377	79.7781	-14.2621	-17.7405	76.3447	-15.6219	-44.4847	75.9705	12.984	48.4313	86.1671	20.6171	77.6882	47.6828	20.3817	77.7946	
108	0.9	30.1989	-12.1111	98.8089	10.2093	-38.2832	72.8132	5.97399	-57.0643	41.4778	24.3685	-58.3372	17.5788	3.48645	17.5904	27.5161	-17.0312	20.1292	2.92839	-32.9789	19.6081	-20.3577	22.6428	1.23157	6.96994	17.6239	-34.0094	-7.91944	25.8374	-51.2063	28.0598	43.4061	-9.04369	-3.55541	37.7884	-39.2381	-11.1293	40.1604	-57.0875	22.1666	76.7422	-6.11249	2.79381	73.6362	-9.86164	-18.1392	73.264	-9.97773	-45.1637	76.3434	14.1231	50.1724	85.8455	21.704	79.5237	48.7681	24.5791	79.2155	
109	0.908333	27.3048	-8.35398	99.8726	9.53423	-31.6966	75.7908	3.83568	-48.3446	39.2153	20.6139	-50.3539	16.3744	2.89764	24.4727	32.1983	-15.4009	27.654	9.90332	-32.9426	30.7221	-17.331	22.208	6.31287	2.94502	9.83296	-24.9453	-4.85415	24.5611	-45.8573	26.1797	45.1892	-2.58664	-2.822	35.0348	-29.3804	-12.9594	34.8762	-50.5698	18.1162	73.331	-0.38774	5.39915	71.7278	-4.38982	-21.2576	66.9258	-4.28363	-44.9937	75.0499	17.2138	51.6256	90.8021	22.1893	79.22	51.8362	24.4194	81.8654	
110	0.916667	25.9528	-1.76362	95.883	6.99916	-24.7571	72.0955	-2.38698	-39.596	40.2406	13.9892	-42.2951	10.9006	9.44089	33.3772	28.8263	-12.2149	39.0903	5.81695	-29.5833	43.4011	-14.3437	22.3733	17.5547	6.99858	11.2666	-18.5298	-5.91915	21.2458	-37.6156	26.9948	45.8357	5.46907	-0.813412	27.7507	-22.655	-11.4238	28.5554	-41.7642	14.6829	75.4062	2.85966	4.19638	68.9615	0.3681	-20.2696	70.3989	1.95012	-46.131	79.1079	19.4129	51.6348	93.3348	20.106	81.9673	53.6045	31.0959	79.841	
111	0.925	30.7771	3.88849	92.9329	8.74307	-15.6927	70.15	-2.72622	-28.6518	38.1959	11.652	-33.8585	10.4132	13.9659	43.948	26.4162	-5.17792	51.5035	4.43646	-21.757	56.7773	-17.0014	29.0607	24.9023	3.39222	10.526	-4.11877	-9.10491	18.789	-28.1201	26.8309	49.3196	11.2445	-3.92053	29.8345	-12.3951	-13.5282	27.8752	-35.4408	15.4551	76.4306	4.68697	5.51974	72.6448	2.8042	-22.0098	72.8699	4.95749	-44.9172	77.9253	24.4214	49.4605	98.2131	21.1489	77.8784	59.743	35.0353	82.5732	
112	0.933333	32.8867	11.2664	91.1167	12.4011	-5.171	63.9626	0.473703	-17.8044	33.755	12.747	-24.7078	5.22599	20.9541	52.4078	25.8384	6.51883	61.7223	-0.00439835	-5.10526	67.613	-19.5204	31.9274	32.3741	-0.110493	17.9177	4.567	-13.169	17.3826	-19.1757	22.0399	51.8253	18.9888	-5.67394	33.1121	-6.24545	-16.0537	29.7249	-28.8059	13.7273	83.3928	6.97567	2.78483	81.546	6.03484	-24.6369	78.3853	9.38534	-47.9283	87.3001	27.1534	46.9046	101.668	22.4149	77.7826	64.6239	37.2778	78.755	
113	0.941667	34.9277	17.1716	92.0218	10.5403	1.25586	64.7688	1.12585	-7.33808	27.6422	12.1597	-16.6571	3.35298	33.9179	59.5319	21.8373	18.4521	69.5756	1.75715	10.3852	79.1425	-27.3961	47.3564	36.566	-1.10795	24.9254	7.96585	-14.3313	21.7108	-12.2973	15.0166	59.3568	22.7373	-6.1125	42.3841	-1.73834	-19.8875	31.1457	-22.1249	11.3364	89.5705	9.49133	-0.237971	85.131	11.2079	-25.3525	87.7749	12.2046	-45.9864	91.7094	26.6569	47.4653	104.969	19.4681	81.8446	71.3261	39.4352	80.4954	
114	0.95	38.9178	22.2642	86.7967	17.0207	9.00305	61.6128	7.937	-0.204637	29.0013	18.9167	-8.02359	0.339509	43.8436	64.7611	18.7793	33.3781	75.4582	-5.99591	27.6178	84.1873	-31.3048	57.5435	40.3504	-5.41505	32.9172	18.962	-17.7094	25.2093	-5.41724	12.1831	68.3505	25.9004	-7.61456	47.358	2.0276	-20.8033	36.5176	-16.9085	3.99856	98.5297	8.0835	2.4127	95.3543	9.33141	-25.033	97.1373	10.6955	-45.4554	101.556	24.5062	51.7319	108.279	21.9563	79.5645	76.8445	41.332	80.4137	
115	0.958333	43.0779	25.92	88.1733	18.6778	15.2288	58.2758	9.21769	6.16345	25.1565	24.3852	-5.22663	0.411561	58.7783	64.9372	15.6823	48.458	78.2381	-10.5273	40.8433	88.6251	-36.8989	67.0903	42.8837	-5.53439	42.3495	16.2336	-21.0778	29.2397	-1.56194	12.8656	82.3719	21.9003	-6.30623	57.2112	6.77597	-22.7977	41.8229	-14.0469	2.54914	102.891	7.25445	2.88408	101.484	7.2684	-23.9046	104.412	10.1105	-44.708	105.954	22.5122	52.9641	112.379	17.5776	83.1031	86.5534	43.4407	76.0866	
116	0.966667	50.2828	29.6882	80.9699	24.6422	18.9674	52.7729	13.9601	8.81637	18.7644	27.6008	-4.49963	-1.54474	69.6391	64.2718	11.3357	61.7827	78.0672	-16.8355	60.2417	82.4334	-45.2579	75.2684	40.8441	-9.06223	51.8554	14.69	-23.1576	37.8918	-2.86202	8.47793	87.4841	18.9543	-10.4496	66.0137	1.4376	-24.5464	46.8294	-12.9078	0.506864	109.352	3.5518	4.2102	111.035	-0.604258	-17.6654	113.48	2.33279	-44.5534	109.912	22.1925	49.5067	116.971	17.3827	86.5446	90.6436	44.8425	77.7638	
117	0.975	54.0237	31.6668	76.2857	27.131	21.5432	49.5441	23.3933	7.01496	16.9273	34.5966	-9.04128	-6.65903	77.2186	63.6574	3.35676	73.3533	71.2821	-22.2911	73.3974	75.0711	-50.8827	84.3744	33.1098	-12.1835	60.3631	14.7572	-27.8824	41.2965	-3.62668	5.57358	95.6444	8.99712	-11.2094	71.1586	-5.47206	-23.7889	47.4502	-14.5628	4.68129	116.697	-7.72407	3.5871	117.782	-11.2192	-16.4929	122.637	-11.8058	-44.3654	113.899	18.099	48.9987	119.998	10.7201	84.1261	95.2605	43.1431	68.6418	
118	0.983333	56.1991	35.4721	73.3454	33.9086	20.4858	42.1915	23.2862	4.0158	14.4577	38.2562	-15.5198	-5.17546	85.2733	53.7375	-0.19978	83.045	60.3434	-28.3507	82.4767	63.3102	-57.5347	90.3103	22.5133	-12.9456	63.9666	3.33985	-29.6657	44.8395	-10.3344	5.14708	97.6343	-3.60877	-14.337	69.7683	-18.7955	-21.5979	48.1191	-18.3435	5.39362	116.764	-18.0858	9.68235	121.911	-28.8246	-18.6357	124.828	-30.1177	-38.8355	119.268	10.417	49.6179	122.11	8.05056	82.2214	102.428	40.3796	63.6469	
119	0.991667	59.4157	34.8662	66.2917	34.8005	19.84	38.9604	27.699	-0.579352	12.8831	38.8801	-23.5665	-1.98452	90.1947	44.4754	-5.91078	90.6769	45.3298	-36.9646	89.546	45.9107	-63.8831	91.932	9.88201	-19.5747	62.593	-8.96136	-28.9898	45.5627	-15.9635	4.805	97.0462	-11.4479	-11.2872	68.1236	-28.599	-19.1581	49.2394	-23.3233	6.38102	116.388	-30.6484	12.7508	118.35	-40.8531	-15.9463	122.462	-48.0621	-36.8946	117.802	4.72951	48.7136	122.472	8.75793	77.9212	102.572	37.8047	59.5417	
120	1	62.6494	36.9438	62.5189	35.8068	19.4658	34.1807	27.9229	-5.66286	12.1488	37.3568	-29.8713	1.56649	94.7729	31.174	-16.1469	92.6778	32.7767	-42.2499	92.1104	27.2322	-67.9531	89.035	-0.869988	-21.2954	61.5724	-19.8302	-27.5836	41.102	-18.2551	8.91634	94.3929	-24.4104	-9.88153	66.3017	-38.3896	-16.7763	46.5076	-29.9364	12.1522	111.903	-41.7733	14.9944	112.229	-55.0288	-7.17442	114.2	-67.1085	-31.4307	118.044	-1.65237	42.9584	123.914	6.1595	79.5471	108.842	33.1528	54.381	
